# xmcd
# 
# Track frame offsets:
#     150
#     15438
#     31776
#     50893
#     68065
#     87824
#     102150
#     119459
#     136362
#     151596
#     169776
#     187764
# 
# Disc length: 2680
# 
# Revision: 0
# Processed by: cddbd v1.5.2PL0 Copyright (c) Steve Scherf et al.
# Submitted via: fre:ac v1.0.17
# 
DISCID=8b0a760c
DTITLE=The McClymonts - Chaos And Bright Lights
DYEAR=0
DGENRE=Country
TTITLE0=My Life Again
TTITLE1=Save Yourself
TTITLE2=Don't Tie My Hands
TTITLE3=Good Cry
TTITLE4=Settle Down
TTITLE5=Way Too Late
TTITLE6=You Were Right
TTITLE7=Shotgun
TTITLE8=Favourite Boyfriend Of The Year
TTITLE9=Finally Over Blue
TTITLE10=Til You Love Me
TTITLE11=Ghost Town
EXTD=
EXTT0=
EXTT1=
EXTT2=
EXTT3=
EXTT4=
EXTT5=
EXTT6=
EXTT7=
EXTT8=
EXTT9=
EXTT10=
EXTT11=
PLAYORDER=
